<?xml version="1.0" encoding="UTF-8" standalone="no"?>
<!DOCTYPE svg PUBLIC "-//W3C//DTD SVG 20010904//EN"
"http://www.w3.org/TR/2001/REC-SVG-20010904/DTD/svg10.dtd">
<!-- Created with Sodipodi ("http://www.sodipodi.com/") -->
<svg
   xmlns="http://www.w3.org/2000/svg"
   xmlns:sodipodi="http://sodipodi.sourceforge.net/DTD/sodipodi-0.dtd"
   xmlns:xlink="http://www.w3.org/1999/xlink"
   id="svg739"
   sodipodi:version="0.34"
   width="210mm"
   height="297mm"
   xml:space="preserve"
   sodipodi:docbase="/home/toogreen/jobs/iqi/"
   sodipodi:docname="/home/toogreen/jobs/iqi/logo_final.svg"><defs
   id="defs741" /><sodipodi:namedview
   id="base" /><path
   style="font-size:40;font-weight:normal;fill:#d600bc;fill-opacity:0.6202;stroke-width:1;font-family:mdk_teams;"
   d="M 324.5237 680.7648 L 379.1756 473.0353 L 358.6834 473.0353 L 356.011 483.141 C 347.1347 480.6146 344.3669 473.0353 324.1554 473.0353 C 282.048 473.0353 246.8944 511.4933 236.5017 550.7935 C 226.1833 589.813 240.2752 615.0774 271.7154 615.0774 C 291.3655 615.0774 307.9252 605.533 321.6197 595.1466 C 321.6197 595.1466 299.2593 680.7648 299.2593 680.7648 C 299.2593 680.7648 324.5237 680.7648 324.5237 680.7648 z M 325.0344 582.2336 C 316.6573 593.743 300.2205 599.638 292.0797 599.638 C 267.6575 599.638 256.1013 578.5843 266.7167 538.442 C 277.2578 498.5804 302.204 481.7375 322.977 481.7375 C 336.7321 481.7375 346.9146 491.0011 346.2652 501.949 C 346.2652 501.949 325.0344 582.2336 325.0344 582.2336 z "
   id="path738" /><path
   style="font-size:40;font-weight:normal;fill:#d600bc;fill-opacity:0.62;stroke-width:1;font-family:mdk_teams;"
   d="M 415.1603 437.941 C 424.4239 437.941 406.4581 437.941 415.1603 437.941 z M 381.7516 613.1076 L 418.8683 472.7498 L 393.6039 472.7498 L 356.4872 613.1076 L 381.7516 613.1076 z "
   id="path692"
   sodipodi:nodetypes="ccccccc" /><path
   style="font-size:36;font-weight:normal;fill:#4c4c4c;stroke-width:1;font-family:mdk_teams;"
   d="M 411.0573 613.7546 C 414.506 613.7546 417.4321 611.1304 417.4321 607.7996 C 417.4321 604.5698 414.4015 601.7437 411.0573 601.7437 C 407.8176 601.7437 404.9959 604.6707 404.9959 607.7996 C 404.9959 610.9285 407.7131 613.7546 411.0573 613.7546 z M 470.7302 596.0915 C 465.8184 602.753 462.2652 606.5884 454.9498 606.5884 C 444.9172 606.5884 437.4973 597.2017 437.4973 585.4936 C 437.4973 572.6752 445.7533 565.509 451.8146 565.509 C 455.1588 565.509 459.4436 567.7295 459.4436 573.5836 C 459.4436 575.1985 460.9067 578.0246 464.7734 578.0246 C 467.6996 578.0246 470.4167 576.7125 470.4167 572.978 C 470.4167 569.2435 468.3266 566.3164 462.3697 563.8941 C 461.6382 563.4903 457.876 562.2791 453.6957 562.2791 C 434.6756 562.2791 428.5098 579.6395 428.5098 589.329 C 428.5098 601.9455 435.9297 613.7546 450.038 613.7546 C 461.0112 613.7546 468.1176 606.6893 472.2978 597.2017 C 472.2978 597.2017 470.7302 596.0915 470.7302 596.0915 z M 493.199 612.5434 L 493.199 574.1891 C 496.4387 570.7574 500.5144 569.0416 504.6947 569.0416 C 510.4425 569.0416 514.1002 573.0789 514.1002 578.6302 C 514.1002 578.6302 514.1002 612.5434 514.1002 612.5434 C 514.1002 612.5434 523.5058 612.5434 523.5058 612.5434 C 523.5058 612.5434 523.5058 576.2078 523.5058 576.2078 C 523.5058 563.995 514.6228 562.2791 510.2335 562.2791 C 503.8586 562.2791 497.3793 566.3164 493.199 570.6565 C 493.199 570.6565 493.199 562.2791 493.199 562.2791 C 493.199 562.2791 483.7935 562.2791 483.7935 562.2791 C 483.7935 562.2791 483.7935 612.5434 483.7935 612.5434 C 483.7935 612.5434 493.199 612.5434 493.199 612.5434 z "
   id="path737" /><path
   style="font-size:40;font-weight:normal;fill:#4c4c4c;stroke-width:1;font-family:mdk_teams;"
   d="M 224.0923 613.1071 L 224.0923 472.7492 L 198.8279 472.7492 L 198.8279 613.1071 L 224.0923 613.1071 z M 211.1794 437.9404 C 220.443 437.9404 228.303 430.3611 228.303 421.3782 C 228.303 412.3952 220.1623 404.5352 211.1794 404.5352 C 202.7579 404.5352 194.8978 412.676 194.8978 421.3782 C 194.8978 429.7996 202.4772 437.9404 211.1794 437.9404 z "
   id="path693" /><path
   style="font-size:12;fill:#4c4c4c;"
   id="path674"
   d="M 463.5879 419.7304 C 459.1131 444.1507 454.5823 452.6736 447.5033 475.6155 C 440.2402 497.2901 432.7934 518.7949 425.2207 540.2401 L 422.659 538.8999 C 430.1161 517.5878 444.2748 456.5547 450.8671 428.2261 C 451.6996 424 451.9699 424.9857 452.9068 413.25 C 452.9191 412.9783 446.7863 410.6618 446.7246 411.2425 C 447.1192 411.4591 469.5883 392.012 463.4132 419.5218 L 463.5879 419.7304 z "
   sodipodi:nodetypes="cccccsscc" /><path
   style="font-size:12;fill:#4c4c4c;"
   id="path675"
   d="M 460.0086 429.2654 C 508.7035 438.0191 542.1134 432.0103 559.7102 426.8199 L 555.1013 417.1214 C 566.8441 416.6762 591.5665 439.8564 558.1329 442.3194 C 532.4284 443.103 499.7707 443.0947 456.1364 435.2101 L 460.0086 429.2654 z "
   sodipodi:nodetypes="cccccc" /><path
   style="font-size:12;fill:#4c4c4c;"
   id="path676"
   d="M 451.0198 509.9444 C 490.3605 518.711 516.7554 519.7878 541.2105 519.6297 C 560.615 519.0611 558.7115 524.9855 560.4995 537.5918 C 562.4414 550.8856 562.3546 552.1417 565.3649 564.9663 C 567.3217 572.437 572.6022 591.5203 575.4641 594.5853 C 575.6645 594.0331 579.7639 591.9388 580.6067 566.1054 C 580.6067 566.1054 585.8479 615.2448 572.9259 613.1277 C 566.4716 608.5007 563.7977 603.2775 560.4404 593.7109 C 558.1742 585.8396 556.2623 579.2859 554.2761 571.2374 C 551.2749 557.5404 551.3098 555.4063 549.2824 541.303 C 547.3198 527.8514 547.4566 515.2475 549.8023 510.4768 C 563.4321 511.4513 580.7149 530.7086 569.1146 534.0245 C 560.0048 537.2696 550.5067 536.0323 541.1852 535.8717 C 516.6336 534.847 469.8745 524.1737 449.3748 515.555 L 451.0198 509.9444 z "
   sodipodi:nodetypes="ccccccccccccccc" /><path
   style="font-size:12;fill:#4c4c4c;"
   id="path677"
   d="M 464.8262 470.5942 C 509.9799 479.3479 540.9602 473.3392 557.2772 468.1487 L 553.0034 458.4501 C 563.8922 458.0051 586.8168 481.1851 555.8146 483.6482 C 531.9792 484.4318 501.6966 484.4234 461.2357 476.5389 L 464.8262 470.5942 z "
   sodipodi:nodetypes="cccccc" /><path
   style="font-size:40;font-weight:normal;fill:#d600bc;font-family:mdk_teams;fill-opacity:0.6196;"
   d="M 417.1908 437.9402 C 426.4545 437.9402 434.3145 430.3609 434.3145 421.378 C 434.3145 412.395 426.1737 404.535 417.1908 404.535 C 408.7694 404.535 400.9093 412.6758 400.9093 421.378 C 400.9093 429.7994 408.4887 437.9402 417.1908 437.9402 z M 404.8394 472.749 L 404.8394 472.749 z "
   id="path695"
   sodipodi:nodetypes="ccccccc" /><text
   style="fill:black;stroke:none;font-family:helvetica;font-style:normal;font-weight:normal;font-size:12px;fill-opacity:1;stroke-opacity:1;stroke-width:1pt;stroke-linejoin:miter;stroke-linecap:butt;"
   x="292.323769"
   y="851.911841"
   id="text811"><tspan
   id="tspan812"></tspan></text></svg>
